<?xml version="1.0" encoding="utf-8"?>
<!-- Generator: Adobe Illustrator 19.0.0, SVG Export Plug-In . SVG Version: 6.00 Build 0)  -->
<svg version="1.1" id="Layer_1" xmlns="http://www.w3.org/2000/svg" xmlns:xlink="http://www.w3.org/1999/xlink" x="0px" y="0px"
	 viewBox="0 0 512 512" style="enable-background:new 0 0 512 512;" xml:space="preserve">
<style type="text/css">
	.st0{fill:#95A5A6;}
	.st1{fill:#7F8C8D;}
</style>
<g id="XMLID_1_">
	<path id="XMLID_5_" class="st0" d="M88.7,58.9l45.5,14.9l3.1,2.4c7.1-3.9,14.9-8.6,22.8-12.6l-1.6-3.9l9.4-47.1l41.6-11l32.2,36.9
		l0.8,3.9c8.6-2.4,18.1-2.4,26.7,0l0.8-3.9l32.2-36.9l41.6,11l9.4,47.1l-1.6,3.9c7.9,3.9,15.7,8.6,22.8,12.6l3.1-2.4l45.5-14.9
		l30.6,29.8L439,134.3l-3.1,3.9c4.7,6.3,9.4,14.9,13.3,21.2h3.9l47.1,8.6l11.8,40.8l-36.9,32.2h-3.9c0.8,11,0.8,19.6,0,28.3h3.9
		l36.9,32.2l-12.6,44l-47.1,8.6l-3.9-2.4c-3.9,8.6-8.6,14.9-13.3,23.6l3.1,2.4l14.9,45.5l-30.6,32.2l-45.5-17.3l-3.1-2.4
		c-7.1,3.9-14.9,8.6-22.8,12.6l1.6,3.9l-9.4,47.1l-41.6,11l-32.2-36.9l-0.8-2.4h-26.7l-0.8,2.4l-32.2,36.9l-41.6-11l-8.6-47.1
		l1.6-3.9c-7.9-3.9-15.7-8.6-22.8-12.6l-3.1,2.4l-45.5,17.3l-30.6-32.2L73,377.7l3.1-2.4c-4.7-8.6-9.4-14.9-13.3-23.6l-3.9,2.4
		l-47.1-8.6L0,302.3l36.9-32.2h3.9c-0.8-8.6-0.8-17.3,0-28.3h-3.9L0,209.7l11.8-40.8l47.1-8.6h3.9c3.9-6.3,8.6-14.9,13.3-21.2
		l-3.1-3.9L58.1,89.5L88.7,58.9z M149.2,149.2c-58.9,58.1-58.9,154.7,0,212.8c58.9,58.1,153.9,58.1,212.8,0s58.9-154.7,0-212.8
		C303.9,91.1,208.1,91.1,149.2,149.2z"/>
	<path id="XMLID_13_" class="st1" d="M134.3,134.3c67.5-66.7,175.9-66.7,243.4,0s67.5,176.7,0,242.7c-67.5,66.7-175.9,66.7-243.4,0
		C66.7,311,67.5,201,134.3,134.3L134.3,134.3z M166.5,136.6l46.3,45.5c18.8-11,40.8-14.9,62-8.6l29.8-60.5
		C258.4,98.2,206.5,106.8,166.5,136.6L166.5,136.6z M135.9,166.5c-30.6,40.8-37.7,92.7-22,137.4l58.1-29.8
		c-4.7-21.2-0.8-43.2,10.2-60.5L135.9,166.5z M225.4,224.6c-16.5,17.3-16.5,45.5,0,62c16.5,17.3,44,17.3,60.5,0
		c16.5-17.3,16.5-45.5,0-62C269.3,209.7,242.7,209.7,225.4,224.6z M342.4,134.3l-29.8,58.1l3.9,2.4c14.9,14.9,22.8,34.6,24.3,53.4
		l64.4,11c0.8-40.8-14.1-79.3-44-109.9C356.5,142.9,349.4,139,342.4,134.3z M133.5,343.2c4.7,6.3,10.2,12.6,16.5,19.6
		c29.8,29.8,69.1,45.5,108.4,43.2l-10.2-65.2c-19.6,0-38.5-8.6-53.4-23.6c-1.6-2.4-2.4-2.4-3.1-3.9L133.5,343.2L133.5,343.2z
		 M334.5,291.3c-3.9,8.6-10.2,17.3-18.1,25.9s-17.3,12.6-26.7,17.3l10.2,66.7c22.8-8.6,44-21.2,62-38.5c18.1-17.3,30.6-38.5,37.7-62
		L334.5,291.3L334.5,291.3z"/>
</g>
</svg>
