<svg xmlns="http://www.w3.org/2000/svg" width="768" height="768" preserveAspectRatio="xMidYMid meet" viewBox="-246 -256 2560 2560">
  <defs>
    <linearGradient id="Gradient1" x1="1443.5" x2="1487.52" y1="902.212" y2="856.669" gradientUnits="userSpaceOnUse">
      <stop class="stop0" offset="0" stop-color="#5d5d5c" />
      <stop class="stop1" offset="1" stop-color="#777773" />
    </linearGradient>
  </defs>
  <rect x="-246" y="-256" width="2560" height="2560" fill="#e0671d"/>
  <path fill="#576468" d="M957.911 362.889c48.979-.044 103.519 1.156 151.999-.198-.37 23.567-.27 47.139.29 70.702 19.62 3.704 39.42 5.407 59.59 9.444 77.79 15.569 152.23 44.321 220.65 84.438 16.85 9.879 32.17 19.959 48.09 31.054 9.72 6.776 30.62 24.584 40.05 29.46 20.88-20.297 50.55-54.024 70.31-76.061 11.77 8.828 30.95 27.354 42.31 37.755 9.84 9.002 29.11 25.686 37.83 35.07-18.5 21.434-55.42 57.664-70.72 79.021 13.79 19.012 32.37 37.4 47.64 58.942A708.3 708.3 0 0 1 1734.99 1051c22.49 185.46-29.33 372.29-144.13 519.68-116.61 150.53-288.66 248.07-477.7 270.84-184.307 22.46-369.59-34.67-514.938-148.83-148.589-117.64-244.359-289.5-266.241-477.75-20.852-181.49 30.342-363.912 142.575-508.05 122.827-156.076 286.427-249.303 483.583-272.81.421-23.73.345-47.465-.228-71.191" />
  <path fill="#888884" d="M1548.89 511.728c11.77 8.828 30.95 27.354 42.31 37.755 9.84 9.002 29.11 25.686 37.83 35.07-18.5 21.434-55.42 57.664-70.72 79.021-22.34-23.317-43.93-46.321-69.43-66.328-2.86-2.241-8.86-6.469-10.3-9.457 20.88-20.297 50.55-54.024 70.31-76.061M957.911 362.889c48.979-.044 103.519 1.156 151.999-.198-.37 23.567-.27 47.139.29 70.702-38.75-4.254-113.454-5.356-152.061.687.421-23.73.345-47.465-.228-71.191" />
  <path fill="#3a4c4e" d="M1021.8 536.899c331.47-6.781 605.61 256.558 612.16 588.031 6.54 331.48-256.99 605.43-588.47 611.74-331.149 6.31-604.771-256.9-611.31-588.05-6.539-331.138 256.478-604.947 587.62-611.721" />
  <path fill="#f3efdb" d="M609.102 1510.78c-141.24-160.54-179.974-386.97-100.133-585.331 79.842-198.365 264.636-334.82 477.713-352.753 213.078-17.932 418.078 85.718 529.948 267.948 153.78 250.496 90.28 577.016-146.17 751.626-236.46 174.6-567.207 139.2-761.358-81.49" />
  <path fill="#d0cab2" d="M609.102 1510.78c-141.24-160.54-179.974-386.97-100.133-585.331 79.842-198.365 264.636-334.82 477.713-352.753 213.078-17.932 418.078 85.718 529.948 267.948-7.2-2.118-18.6-19.453-23.8-25.856a718 718 0 0 0-33.35-37.848c-94.31-98.358-233.23-160.501-368.5-169.986-9.19-.644-33.77-2.408-42.37-1.035-11.41-11.619-18.49-12.994-29.17.853-66.685 4.453-126.693 20.723-187.663 48.014-16.717 7.482-35.126 18.334-50.568 25.044-10.751-18.075-28.758-10.014-17.243 10.407-61.073 42.584-111.921 85.096-155.227 146.762-6.031 8.588-12.068 17.501-18.939 25.424-18.164-8.901-26.769 6.969-9.488 17.845-5.327 7.959-11.437 20.081-16.067 28.863a553 553 0 0 0-58.357 179.849c-.876 5.9-4.05 22.81-4.139 27.73l1.027.62c-7.167 10.04-8.739 13.29-2.824 25.04-1.961 4.21-1.412 22.53-1.323 28.06 1.526 94.15 20.891 191.51 69.231 273.37a687 687 0 0 0 23.656 37.03c5.152 7.52 16.891 21.8 17.586 29.95" />
  <path fill="#576468" d="M502.776 1117.33c12.234-4.15 88.335-2.37 105.147.6 9.509 1.68 11.487 19.17-1.913 28.96-15.874 1.6-37.232.54-53.619.8-14.032.23-30.643.56-44.442-.99-2.973-.34-5.659-2.5-7.997-4.33-5.915-11.75-4.343-15 2.824-25.04m516.664-510.558c10.68-13.847 17.76-12.472 29.17-.853 1.84 13.901.97 38.057 1.1 52.617.1 11.144.55 35.796-.92 46.164-11.39 12.083-25.95 11.821-29.9-5.575-1.2-5.312-1.06-17.446-.71-23.113 1.34-22.037-1.43-47.645 1.26-69.24m-255.474 83.465c-11.515-20.421 6.492-28.482 17.243-10.407 5.676 10.564 37.253 61.218 35.358 69.248-.568 2.41-2.416 5.562-4.654 6.814-2.162 1.21-4.074 1.265-6.356.374-10.291-4.017-34.696-53.871-41.591-66.029M580.312 880.268c-17.281-10.876-8.676-26.746 9.488-17.845 11.705 7.583 64.253 34.123 66.451 45.052.492 2.446.279 3.886-1.195 5.925-1.693 2.344-5.193 3.51-7.93 3.399-13.125-.537-51.548-29.08-66.814-36.531" />
  <path fill="#6f270c" d="M1313.16 776.881c-2.79-11.951-7.23-37.33 10.56-40.993 8.41-1.732 15.48 4.326 21.92 9.063l11.76.317 1.55 1.094c10.04 7.031 16.93 7.122 26.58 13.147 10.18 6.361 9.34 15.96 2.81 25.369 6.68 6.547 16.65 8.521 18.52 20.209 1.67 10.433-14.69 26.133-23.03 30.264.83 3.72 1.8 7.655 2.4 11.395 1.08 2.519 1.13 2.882 3.3 4.597 6.76 5.345 9 14.471 9.74 22.665 5.23 71.992-45.25 151.482-87.98 206.532-25.55 32.92-56.35 62.95-87.95 89.32-18.11 15.1-38.74 28.22-55.91 42.38l7.38 5.15c.97 25.91-.63 29.62-18.72 49.36-4.98 5.44-6.19 16.87-19.4 17.06-12.73.18-19.37-9.76-25.85-18.91-24.93 11.05-40.83 5.78-66.86 5.35-27.99-.46-41.68 1.42-67.138-11.84-7.564 16.79-25.16 36.29-42.409 15.78-3.637-4.33-5.632-11.7-8.791-16.47-7.281-11.63-20.46-22.77-15.534-38.12.284-.89 2.697-3.55 3.396-4.55-9.394-4.13-18.921-11.89-27.429-18.03a509 509 0 0 1-124.613-127.44c-16.778-25.13-47.117-79.799-41.227-109.429a91.5 91.5 0 0 1-2.653-48.447l-.783-.93c-4.133-1.396-13.584-7.578-14.18-11.815-.959-6.817 6.442-17.921 9.903-23.592a68 68 0 0 1-4.387-2.903c-3.38-2.428-7.927-7.882-7.674-12.323.712-12.508 16.175-16.967 25.317-21.806 1.617-.856 6.661-5.985 8.048-7.384-.054.01 2.856-.524 2.778-.519 12.465-1.033 21.433-11.73 34.403-11.121 16.264.765 12.523 27.277 10.792 38.249 57.848-2.74 71.241 37.225 94.129 78.963a243 243 0 0 0 27.177 39.3c37.519 43.677 77.341 71.347 128.195 97.007 12.69-8.25 25.66-15.49 38.3-24.02 63.6-42.36 121.88-99.82 153.72-170.376 22.56-50.002 21.76-95.238 89.84-101.553" />
  <path fill="#d0cab2" d="M1386.23 846.746c1.08 2.519 1.13 2.882 3.3 4.597 6.76 5.345 9 14.471 9.74 22.665 5.23 71.992-45.25 151.482-87.98 206.532-25.55 32.92-56.35 62.95-87.95 89.32-18.11 15.1-38.74 28.22-55.91 42.38l7.38 5.15c.97 25.91-.63 29.62-18.72 49.36-4.98 5.44-6.19 16.87-19.4 17.06-12.73.18-19.37-9.76-25.85-18.91-24.93 11.05-40.83 5.78-66.86 5.35-27.99-.46-41.68 1.42-67.138-11.84-7.564 16.79-25.16 36.29-42.409 15.78-3.637-4.33-5.632-11.7-8.791-16.47-7.281-11.63-20.46-22.77-15.534-38.12.284-.89 2.697-3.55 3.396-4.55 1.752 5.85 5.334 7.09 7.767 11.32 19.158 33.34 35.136 26.92 45.959-7.42 21.671 10.76 34.6 11.19 58.76 11.3 6.21.03 13.92 4.47 20.4 5.39 21.35 3.03 38.32-2.97 57.45-11.73 3.18 8.94 9.99 23.7 19.84 26.22 18.96 4.83 30.6-25.58 38.43-38.19 3.05-4.91 8.94-8.3 10.01-14.68 2.55-15.18-7.72-18.99-20.1-21.74 40.6-30.13 69.27-51.26 105.2-87.11 55.81-55.68 129.49-160.737 129.01-241.664" />
  <path fill="#d0cab2" d="M720.235 960.151c29.632 82.659 111.106 167.259 183.822 214.189-7.987 25.08 7.268 21.33 9.447 40.71-9.394-4.13-18.921-11.89-27.429-18.03a509 509 0 0 1-124.613-127.44c-16.778-25.13-47.117-79.799-41.227-109.429m668.105-175.273c6.68 6.547 16.65 8.521 18.52 20.209 1.67 10.433-14.69 26.133-23.03 30.264-4.91-16.987-7.1-20.599-18.54-33.97 9.17-5.859 14.98-9.034 23.05-16.503m-675.818 90.489a468 468 0 0 1 18.531 9.428c-6.112 9.623-9.715 16.094-13.471 26.909l-.783-.93c-4.133-1.396-13.584-7.578-14.18-11.815-.959-6.817 6.442-17.921 9.903-23.592" />
  <path fill="#c8450c" d="M1053.29 1077.43c92.51-54.52 170.13-133.738 201.52-237.3 10.9-35.991 45.25-56.288 81.69-41.193 44.91 19.022 34.74 78.206 19.87 113.676-16.61 39.61-31.89 68.234-57.4 102.457a599.5 599.5 0 0 1-170.53 154.7c-39.09 24.12-96.79 58.01-143.357 38.41-13.731-5.78-27.588-18.23-28.45-33.97a91 91 0 0 1-.707-6.23c-1.403-19.8 4.116-30.55 16.497-44.97 2.049-3.89 10.235-21.6 11.536-25.1l.058-.51 11.048-9.19c3.746-2.56 9.575-5.88 13.585-8.31 17.98-5.81 26.21-5.23 44.64-2.47" />
  <path fill="#913922" d="M1336.5 798.937c44.91 19.022 34.74 78.206 19.87 113.676-16.61 39.61-31.89 68.234-57.4 102.457a599.5 599.5 0 0 1-170.53 154.7c-39.09 24.12-96.79 58.01-143.357 38.41-13.731-5.78-27.588-18.23-28.45-33.97a91 91 0 0 1-.707-6.23c-1.403-19.8 4.116-30.55 16.497-44.97 2.049-3.89 10.235-21.6 11.536-25.1l.058-.51 11.048-9.19c3.746-2.56 9.575-5.88 13.585-8.31 17.98-5.81 26.21-5.23 44.64-2.47 4.88 2.79 8.07 4.3 13.11 6.54 4.96 3.7 9.4 7.08 14.18 11.02 12.68 18.34 17.3 32.62 13.26 55.26 107.48-55.43 237.76-189.484 247.68-318.838.53-6.945-3.56-24.807-5.02-32.475" />
  <path fill="#576468" d="M1008.65 1079.9c17.98-5.81 26.21-5.23 44.64-2.47 4.88 2.79 8.07 4.3 13.11 6.54 4.96 3.7 9.4 7.08 14.18 11.02 12.68 18.34 17.3 32.62 13.26 55.26-4.08 11.25-6.85 19.44-15.64 28.19-23.31 23.18-60.14 23.35-85.566 3.94-16.255-.79-21.286-1.42-36.001-8.17a91 91 0 0 1-.707-6.23c-1.403-19.8 4.116-30.55 16.497-44.97 2.049-3.89 10.235-21.6 11.536-25.1l.058-.51 11.048-9.19c3.746-2.56 9.575-5.88 13.585-8.31" />
  <path fill="#c8450c" d="M972.423 1123.01c1.578 26.87 1.136 38.67 20.211 59.37-16.255-.79-21.286-1.42-36.001-8.17a91 91 0 0 1-.707-6.23c-1.403-19.8 4.116-30.55 16.497-44.97" />
  <path fill="#a7a8a5" d="M1031.03 1101.55c18.71-1.82 35.36 11.9 37.15 30.62s-11.95 35.34-30.67 37.1c-18.68 1.76-35.26-11.94-37.05-30.62-1.787-18.68 11.89-35.28 30.57-37.1" />
  <path fill="#ce744d" d="M1066.4 1083.97c90.74-52.84 147.93-116.001 189.21-207.821 1.58-3.512 8.26-3.628 11.94.131 2.87 9.514-13.81 39.093-19.08 48.876-37.76 70.121-101.73 127.194-167.89 169.834-4.78-3.94-9.22-7.32-14.18-11.02M1302 806.089c5.39-.299 11.39.782 11.2 7.543-.25 9.315-16.62 12.925-22.58 19.784-9.1 10.463-5.64 22.199-14.91 32.51-30.22 2.083-2.58-52.071 26.29-59.837" />
  <path fill="#c8450c" d="M760.553 881.908c59.751-28.03 80.61 22.791 102.292 65.701 7.257 14.362 20.88 29.575 31.162 42.202 32.388 36.189 71.71 67.539 114.643 90.089-4.01 2.43-9.839 5.75-13.585 8.31l-11.048 9.19-.058.51c-14.82.25-36.43 26.56-41.097 40.15-4.09 9.88-4.04 20.77-3.999 31.23-24.36-4.2-39.776-17.66-58.891-32.3-57.925-44.33-106.068-100.24-137.812-166.102-14.027-29.099-17.69-74.327 18.393-88.98" />
  <path fill="#913922" d="M938.863 1169.29c-24.36-4.2-39.776-17.66-58.891-32.3-57.925-44.33-106.068-100.24-137.812-166.102-14.027-29.099-17.69-74.327 18.393-88.98-16.114 43.911 22.058 95.708 45.664 131.602 25.885 39.35 65.192 75.3 102.551 103.81 10.637 8.12 23.145 13.44 34.094 20.74-4.09 9.88-4.04 20.77-3.999 31.23" />
  <path fill="#ce744d" d="M984.017 1097.4c-4.593.09-9.612-2.86-13.529-5.36-53.134-33.89-102.821-79.72-132.96-135.639-2.871-5.326-7.899-14.665-6.334-20.365 2.408-2.883 5.375-3.843 8.826-5.48 8.795 12.547 15.704 30.137 25.512 44.03 35.641 50.484 77.036 83.154 129.533 113.624zM780.931 886.3c2.904-.307 5.82-.48 8.739-.52 17.043-.175 43.071 13.351 44.901 33.377.27 2.958-2.081 4.486-4.042 6.399-1.364.363-4.629 1.516-5.677 1.062-8.593-3.72-14.233-17.682-23.133-22.382-5.398-3.409-14.389-1.401-19.705-4.44-4.956-2.833-3.699-9.665-1.083-13.496" />
  <path fill="#c8450c" d="M916.448 1183.06c7.61-.08 17.259-.75 24.518 1.11 4.52 1.16 4.718 2.98 6.801 6.72 11.598 14.06 3.979 27.55-5.48 40.34-4.629-7.26-7.452-11.93-11.256-19.61-3.963-9.19-9.963-19.2-14.583-28.56" />
  <path fill="#913922" d="M947.767 1190.89c11.598 14.06 3.979 27.55-5.48 40.34-4.629-7.26-7.452-11.93-11.256-19.61 5.821-6.36 12.632-13.26 16.736-20.73M1325.9 751.672c8.3 5.386 12.73 7.487 22.22 10.155 8.4 2.142 19.57 8.081 28.57 11.219-7.97 5.914-15.5 11.739-24.09 16.764-4.3-2.052-11.05-5.488-15.32-7.088-2.2-.673-4.07-1.33-6.24-2.12-5.41-5.722-4.76-20.603-5.14-28.93" />
  <path fill="#c8450c" d="M1325.9 751.672c8.3 5.386 12.73 7.487 22.22 10.155-2.05 6.007-5.19 17.921-10.84 20.895-2.2-.673-4.07-1.33-6.24-2.12-5.41-5.722-4.76-20.603-5.14-28.93m-587.52 97.143c13.143-5.333 17.02-6.496 28.728-14.202-.036 7.599.989 25.702-3.828 30.769-16.89 11.168-30.793 1.939-46.475-7.105 8.084-2.354 16.156-3.474 21.575-9.462" />
  <path fill="#913922" d="M716.805 858.277c8.084-2.354 16.156-3.474 21.575-9.462 8.051 7.975 13.575 13.203 24.9 16.567-16.89 11.168-30.793 1.939-46.475-7.105M1121.03 1194.7c10.82-10.29 20.75-7.45 33.8-2.59-2.07 2.83-7.38 9.71-8.73 12.5-.54 3.34-2.45 8.49-3.58 11.87-7.97 5.36-9.67 9.01-14.18 17.18a74.4 74.4 0 0 1-6.86-15.19c-2.59-7.92-4.24-16.15-.45-23.77" />
  <path fill="#c8450c" d="M1121.03 1194.7c10.82-10.29 20.75-7.45 33.8-2.59-2.07 2.83-7.38 9.71-8.73 12.5-6.41-1.44-17.38-7.25-25.07-9.91" />
  <path fill="#913922" d="m1099.86 1205.97 1.35.22.67 1.24c-2.51 4.21-11.81 6.29-16.63 7.72l-1.33-.16c1.59-2.16 12.74-7.38 15.94-9.02" />
  <path fill="#576468" d="M1469.71 1115.39c19.63.11 39.27.1 58.9-.02 13.6-.03 42.68-4.64 43.76 14.74.64 11.51-5.87 16.19-16.6 17.27-17.53.33-35.64.17-53.21.25-12.12.06-28.1.54-39.69-.74-.64-.44-1.28-.88-1.92-1.34-14.4-10.52-9.45-27.89 8.76-30.16m-438.36 440.59c2.31 0 4.73-.06 6.95.65 4.3 1.38 8.13 4.47 9.94 8.67 2.99 6.95 2.62 94.9-.13 101.33-1.95 4.56-7.01 6.82-11.22 8.73-1.64-.08-3.29-.18-4.91-.45-4.34-.72-8.94-3.38-11.22-7.26-3.67-6.27-4.09-92.6-1.37-101.01 1.81-5.57 7.12-8.17 11.96-10.66m226.54-42.85c4.01-.6 9.37-1.51 11.96 2.65 10.64 17.08 20.25 34.91 30.36 52.33 3.42 5.89 6.95 12.04 9.64 18.26 2.81 6.5-.19 10.05-4.98 13.36-8.59.7-10.41-.63-14.61-8.12-12.72-22.66-27.72-45.21-38.03-68.91-1.25-2.87 4.16-8.07 5.66-9.57m161.59-169.19c10.69.79 64.38 36.4 76.45 44.42 7.15 4.75 2.39 11.49-2.57 16.08-13.77-.31-65.73-34.59-79.17-44.19-6.55-4.68.15-12.86 5.29-16.31m-774.753.85c14.004-.18 13.723 13.59 7.956 17.22-19.927 12.56-51.506 32.56-72.003 42.35-4.773-.09-6.555-1.28-10.508-3.57-6.591-10.65 12.523-20.38 20.193-24.65 18.142-10.12 35.865-21.99 54.362-31.35m157.149 168.01c19.658.13 14.641 14.26 7.059 25.26-9.036 13.1-26.583 53.55-37.311 61.9-5.894.38-15.089-2.41-13.139-8.43 5.239-16.18 33.168-68.58 43.391-78.73m494.654-843.874c6.79 1.055 15.3 3.519 11.36 12.484-5.43 12.359-34.58 70.862-43.28 75.616-6.84-.525-10.51-1.165-12.36-8.41 1.58-11.148 36.06-72.874 44.28-79.69" />
  <path fill="url(#Gradient1)" d="M1429.8 891.317c18.21-10.15 36.32-21.654 54.83-31.198 6.07-3.135 10.08-.957 13.43 4.598 2.46 13.699-36.27 30.938-47.06 37.085-7.35 4.664-23.82 15.857-31.55 13.43-20.79-6.529 4.27-20.641 10.35-23.915" />
  <path fill="#576468" d="M1451 901.802c-7.35 4.664-23.82 15.857-31.55 13.43-20.79-6.529 4.27-20.641 10.35-23.915 7.04 8.577 12.66 3.825 19.68 9.308z" />
  <path fill="#888884" d="M892.392 225c6.732-7.773 32.834-28.013 43.167-29.178 16.453-1.853 194.121-1.893 202.391.841 10.16 3.363 28.19 20.35 37.16 27.507 1.68 10.042.83 105.969-.73 108.781l-1.18.74c-24.16 21.076-31.15 30.523-63.29 29-48.48 1.354-103.02.154-151.999.198-36.74.711-35.29-8.74-64.464-29.731-1.821-7.081-1.109-29.883-1.144-38.129-.1-23.251.691-46.775.089-70.029" />
  <path fill="#576468" d="m893.447 333.158 191.883-.097 55.95-.129c7.96-.012 24.61-.371 31.92.759-24.16 21.076-31.15 30.523-63.29 29-48.48 1.354-103.02.154-151.999.198-36.74.711-35.29-8.74-64.464-29.731" />
  <path fill="#a7a8a5" d="M892.392 225c6.732-7.773 32.834-28.013 43.167-29.178 16.453-1.853 194.121-1.893 202.391.841 10.16 3.363 28.19 20.35 37.16 27.507l-177.79-.161c-33.221.024-72.221-.868-104.928.991m656.498 286.728c-8.44-7.371-21.93-18.702-21.74-31.378.27-18.688 22.14-36.246 33.6-49.47 10.17-11.742 27.48-19.512 41.64-9.47 16.01 11.355 31.15 28.274 46.33 41.111 20.86 19.091 42.36 37.975 62.61 57.677 10.75 10.463 12.41 27.327 3.18 39.177-9.77 12.546-21.46 25.337-32.97 36.29-19.3 18.389-37.4 3.2-52.51-11.112-8.72-9.384-27.99-26.068-37.83-35.07-11.36-10.401-30.54-28.927-42.31-37.755" />
</svg>
